# xmcd
#
# Track frame offsets:
#	150
#	17403
#	34653
#
# Disc length: 687 seconds
#
# Revision: 0
# Processed by: cddbd v1.4PL0 Copyright (c) Steve Scherf et al.
# Submitted via: dBpowerAMP V4.0
#
DISCID=1502ad03
DTITLE=Billy Hoffman - AllI wanted is you
DYEAR=2000
DGENRE=Country
TTITLE0=I go crazy
TTITLE1=I go crazy
TTITLE2=I go crazy
EXTD=
EXTT0=
EXTT1=
EXTT2=
PLAYORDER=
